<svg width="54" height="54" viewBox="0 0 54 54" fill="none" xmlns="http://www.w3.org/2000/svg">
<g clip-path="url(#clip0_35_1111)">
<rect width="54" height="54" rx="27" fill="#008080"/>
<path d="M16.8646 41.9547V12.2694H22.2079V23.5074H22.9713C23.1975 23.0551 23.5508 22.6028 24.0315 22.1504C24.5121 21.6981 25.1482 21.3305 25.9398 21.0478C26.7597 20.7368 27.7916 20.5813 29.0356 20.5813C30.6753 20.5813 32.103 20.963 33.3187 21.7263C34.5627 22.4614 35.5239 23.4933 36.2024 24.8221C36.881 26.1226 37.2202 27.6493 37.2202 29.4021V41.9547H31.8769V29.8262C31.8769 28.243 31.4811 27.0555 30.6895 26.2639C29.9261 25.4723 28.8235 25.0765 27.3817 25.0765C25.7419 25.0765 24.4697 25.6278 23.565 26.7304C22.6603 27.8047 22.2079 29.3173 22.2079 31.268V41.9547H16.8646Z" fill="white"/>
<circle cx="34.591" cy="14.7974" r="2.71408" fill="white"/>
</g>
<defs>
<clipPath id="clip0_35_1111">
<rect width="54" height="54" rx="27" fill="white"/>
</clipPath>
</defs>
</svg>
